<svg xmlns="http://www.w3.org/2000/svg" viewBox="0 0 379.44 76.2"><defs><style>.cls-1{opacity:0.22;}.cls-2{fill:#e0e0e0;}.cls-3{font-size:36px;font-family:Roboto-Thin, Roboto;font-weight:200;}</style></defs><title>Asset 1</title><g id="Layer_2" data-name="Layer 2"><g id="Layer_1-2" data-name="Layer 1"><g class="cls-1"><rect x="1" y="1" width="153.44" height="75.2" rx="16.18"/><rect x="0.98" y="0.98" width="153.44" height="75.2" rx="16.18"/><rect x="0.96" y="0.96" width="153.44" height="75.2" rx="16.18"/><rect x="0.94" y="0.94" width="153.44" height="75.2" rx="16.18"/><rect x="0.92" y="0.92" width="153.44" height="75.2" rx="16.18"/><rect x="0.9" y="0.9" width="153.44" height="75.2" rx="16.18"/><rect x="0.88" y="0.88" width="153.44" height="75.2" rx="16.18"/><rect x="0.86" y="0.86" width="153.44" height="75.2" rx="16.18"/><rect x="0.84" y="0.84" width="153.44" height="75.2" rx="16.18"/><rect x="0.82" y="0.82" width="153.44" height="75.2" rx="16.18"/><rect x="0.8" y="0.8" width="153.44" height="75.2" rx="16.18"/><rect x="0.78" y="0.78" width="153.44" height="75.2" rx="16.18"/><rect x="0.76" y="0.76" width="153.44" height="75.2" rx="16.18"/><rect x="0.74" y="0.74" width="153.44" height="75.2" rx="16.18"/><rect x="0.72" y="0.72" width="153.44" height="75.2" rx="16.18"/><rect x="0.7" y="0.7" width="153.44" height="75.2" rx="16.18"/><rect x="0.68" y="0.68" width="153.44" height="75.2" rx="16.18"/><rect x="0.66" y="0.66" width="153.44" height="75.2" rx="16.18"/><rect x="0.64" y="0.64" width="153.44" height="75.2" rx="16.18"/><rect x="0.62" y="0.62" width="153.44" height="75.2" rx="16.18"/><rect x="0.6" y="0.6" width="153.44" height="75.2" rx="16.18"/><rect x="0.58" y="0.58" width="153.44" height="75.2" rx="16.18"/><rect x="0.56" y="0.56" width="153.44" height="75.2" rx="16.18"/><rect x="0.54" y="0.54" width="153.44" height="75.2" rx="16.18"/><rect x="0.52" y="0.52" width="153.44" height="75.2" rx="16.18"/><rect x="0.5" y="0.5" width="153.44" height="75.2" rx="16.18"/><rect x="0.48" y="0.48" width="153.44" height="75.2" rx="16.18"/><rect x="0.46" y="0.46" width="153.44" height="75.2" rx="16.18"/><rect x="0.44" y="0.44" width="153.44" height="75.2" rx="16.18"/><rect x="0.42" y="0.42" width="153.44" height="75.2" rx="16.18"/><rect x="0.4" y="0.4" width="153.44" height="75.2" rx="16.18"/><rect x="0.38" y="0.38" width="153.44" height="75.2" rx="16.18"/><rect x="0.36" y="0.36" width="153.44" height="75.2" rx="16.18"/><rect x="0.34" y="0.34" width="153.44" height="75.2" rx="16.18"/><rect x="0.32" y="0.32" width="153.44" height="75.2" rx="16.18"/><rect x="0.3" y="0.3" width="153.44" height="75.2" rx="16.18"/><rect x="0.28" y="0.28" width="153.44" height="75.2" rx="16.18"/><rect x="0.26" y="0.26" width="153.44" height="75.2" rx="16.18"/><rect x="0.24" y="0.24" width="153.44" height="75.2" rx="16.18"/><rect x="0.22" y="0.22" width="153.44" height="75.2" rx="16.18"/><rect x="0.2" y="0.2" width="153.44" height="75.2" rx="16.18"/><rect x="0.18" y="0.18" width="153.44" height="75.2" rx="16.18"/><rect x="0.16" y="0.16" width="153.44" height="75.2" rx="16.18"/><rect x="0.14" y="0.14" width="153.44" height="75.2" rx="16.18"/><rect x="0.12" y="0.12" width="153.44" height="75.2" rx="16.18"/><rect x="0.1" y="0.1" width="153.44" height="75.2" rx="16.18"/><rect x="0.08" y="0.08" width="153.44" height="75.2" rx="16.18"/><rect x="0.06" y="0.06" width="153.44" height="75.2" rx="16.18"/><rect x="0.04" y="0.04" width="153.44" height="75.2" rx="16.18"/><rect x="0.02" y="0.02" width="153.44" height="75.2" rx="16.18"/><rect width="153.44" height="75.2" rx="16.18"/></g><rect class="cls-2" width="153.44" height="75.2" rx="16.18"/><text class="cls-3" transform="translate(41.15 50.12)">Shift</text><g class="cls-1"><rect x="226" y="1" width="153.44" height="75.2" rx="16.18"/><rect x="225.98" y="0.98" width="153.44" height="75.2" rx="16.18"/><rect x="225.96" y="0.96" width="153.44" height="75.2" rx="16.18"/><rect x="225.94" y="0.94" width="153.44" height="75.2" rx="16.18"/><rect x="225.92" y="0.92" width="153.44" height="75.2" rx="16.18"/><rect x="225.9" y="0.9" width="153.44" height="75.2" rx="16.18"/><rect x="225.88" y="0.88" width="153.44" height="75.2" rx="16.18"/><rect x="225.86" y="0.86" width="153.44" height="75.2" rx="16.18"/><rect x="225.84" y="0.84" width="153.44" height="75.2" rx="16.18"/><rect x="225.82" y="0.82" width="153.44" height="75.2" rx="16.18"/><rect x="225.8" y="0.8" width="153.44" height="75.2" rx="16.18"/><rect x="225.78" y="0.78" width="153.44" height="75.2" rx="16.18"/><rect x="225.76" y="0.76" width="153.44" height="75.2" rx="16.18"/><rect x="225.74" y="0.74" width="153.44" height="75.2" rx="16.18"/><rect x="225.72" y="0.72" width="153.44" height="75.2" rx="16.18"/><rect x="225.7" y="0.7" width="153.44" height="75.2" rx="16.18"/><rect x="225.68" y="0.68" width="153.44" height="75.2" rx="16.18"/><rect x="225.66" y="0.66" width="153.44" height="75.2" rx="16.18"/><rect x="225.64" y="0.64" width="153.44" height="75.2" rx="16.18"/><rect x="225.62" y="0.62" width="153.44" height="75.2" rx="16.18"/><rect x="225.6" y="0.6" width="153.44" height="75.2" rx="16.18"/><rect x="225.58" y="0.58" width="153.44" height="75.2" rx="16.18"/><rect x="225.56" y="0.56" width="153.44" height="75.2" rx="16.18"/><rect x="225.54" y="0.54" width="153.44" height="75.2" rx="16.18"/><rect x="225.52" y="0.52" width="153.44" height="75.2" rx="16.18"/><rect x="225.5" y="0.5" width="153.44" height="75.2" rx="16.18"/><rect x="225.48" y="0.48" width="153.44" height="75.2" rx="16.18"/><rect x="225.46" y="0.46" width="153.44" height="75.2" rx="16.18"/><rect x="225.44" y="0.44" width="153.44" height="75.2" rx="16.18"/><rect x="225.42" y="0.42" width="153.44" height="75.2" rx="16.18"/><rect x="225.4" y="0.4" width="153.44" height="75.2" rx="16.18"/><rect x="225.38" y="0.38" width="153.44" height="75.2" rx="16.18"/><rect x="225.36" y="0.36" width="153.44" height="75.2" rx="16.18"/><rect x="225.34" y="0.34" width="153.44" height="75.2" rx="16.18"/><rect x="225.32" y="0.32" width="153.44" height="75.2" rx="16.18"/><rect x="225.3" y="0.3" width="153.44" height="75.2" rx="16.18"/><rect x="225.28" y="0.28" width="153.44" height="75.2" rx="16.18"/><rect x="225.26" y="0.26" width="153.44" height="75.2" rx="16.18"/><rect x="225.24" y="0.24" width="153.44" height="75.2" rx="16.18"/><rect x="225.22" y="0.22" width="153.44" height="75.2" rx="16.18"/><rect x="225.2" y="0.2" width="153.44" height="75.2" rx="16.18"/><rect x="225.18" y="0.18" width="153.44" height="75.2" rx="16.18"/><rect x="225.16" y="0.16" width="153.44" height="75.2" rx="16.18"/><rect x="225.14" y="0.14" width="153.44" height="75.2" rx="16.18"/><rect x="225.12" y="0.12" width="153.44" height="75.2" rx="16.18"/><rect x="225.1" y="0.1" width="153.44" height="75.2" rx="16.18"/><rect x="225.08" y="0.08" width="153.44" height="75.2" rx="16.18"/><rect x="225.06" y="0.06" width="153.44" height="75.2" rx="16.18"/><rect x="225.04" y="0.04" width="153.44" height="75.2" rx="16.18"/><rect x="225.02" y="0.02" width="153.44" height="75.2" rx="16.18"/><rect x="225" width="153.44" height="75.2" rx="16.18"/></g><rect class="cls-2" x="225" width="153.44" height="75.2" rx="16.18"/><text class="cls-3" transform="translate(281.57 50.12)">Alt</text><text class="cls-3" transform="translate(178.59 49.79)">+</text></g></g></svg>